<svg id="svg" version="1.1" xmlns="http://www.w3.org/2000/svg" xmlns:xlink="http://www.w3.org/1999/xlink" width="400" height="220.07722007722006" viewBox="0, 0, 400,220.07722007722006"><g id="svgg"><path id="path0" d="M275.509 14.488 C 274.898 14.535,274.460 14.736,274.078 15.143 L 273.528 15.730 273.472 108.160 C 273.412 207.932,273.347 201.764,274.453 202.188 C 274.898 202.359,382.670 202.359,383.115 202.188 C 384.222 201.763,384.154 207.924,384.153 108.429 C 384.152 8.269,384.239 15.386,383.013 14.730 C 382.374 14.388,368.651 14.446,367.990 14.793 C 367.217 15.199,365.726 17.222,364.649 19.326 C 363.627 21.324,360.300 23.795,356.962 25.038 L 355.641 25.529 328.751 25.533 L 301.862 25.537 300.270 24.889 C 299.395 24.533,298.148 23.889,297.499 23.458 C 296.850 23.027,296.230 22.675,296.121 22.675 C 295.554 22.675,293.404 20.162,292.260 18.162 C 290.680 15.399,289.762 14.534,288.390 14.517 C 282.960 14.448,276.218 14.433,275.509 14.488 " stroke="none" fill="#141414" fill-rule="evenodd"></path><path id="path1" d="M9.246 0.220 C 9.246 0.341,9.110 0.440,8.943 0.440 C 8.776 0.440,8.504 0.608,8.337 0.813 C 8.080 1.130,8.081 1.158,8.344 0.999 C 8.550 0.875,8.603 0.895,8.502 1.057 C 8.419 1.192,8.214 1.249,8.045 1.184 C 7.874 1.118,7.631 1.268,7.494 1.524 C 7.328 1.834,7.021 1.987,6.542 1.999 C 6.152 2.008,5.962 2.067,6.118 2.130 C 6.330 2.215,6.340 2.319,6.157 2.540 C 6.022 2.703,5.764 2.779,5.584 2.710 C 5.374 2.629,5.214 2.752,5.135 3.053 C 5.067 3.311,4.940 3.522,4.851 3.522 C 4.587 3.522,3.830 4.257,3.550 4.786 C 3.407 5.057,3.174 5.255,3.033 5.226 C 2.893 5.197,2.738 5.371,2.688 5.614 C 2.639 5.856,2.495 6.153,2.368 6.274 C 2.209 6.425,2.192 6.397,2.313 6.185 C 2.431 5.978,2.406 5.928,2.235 6.033 C 2.096 6.119,1.981 6.478,1.981 6.830 C 1.981 7.247,1.826 7.552,1.534 7.709 C 1.288 7.840,1.102 8.067,1.120 8.212 C 1.251 9.258,1.086 9.686,0.550 9.686 L 0.000 9.686 0.000 110.842 L 0.000 211.998 0.536 211.998 C 1.035 211.998,1.498 212.656,1.359 213.170 C 1.332 213.270,1.401 213.295,1.512 213.226 C 1.772 213.066,1.981 213.613,1.981 214.450 C 1.981 214.811,2.074 215.049,2.186 214.979 C 2.299 214.909,2.540 215.064,2.721 215.323 C 2.902 215.581,3.414 216.012,3.858 216.281 C 4.303 216.549,4.682 216.859,4.700 216.970 C 4.718 217.081,4.807 217.146,4.898 217.116 C 4.989 217.086,5.076 217.160,5.091 217.281 C 5.106 217.402,5.131 217.578,5.146 217.672 C 5.212 218.082,6.323 219.014,6.824 219.080 C 7.127 219.120,7.387 219.276,7.402 219.428 C 7.417 219.579,7.442 219.802,7.457 219.923 C 7.475 220.066,10.804 220.143,16.947 220.143 L 26.409 220.143 26.547 219.593 C 26.623 219.290,26.826 219.042,26.998 219.042 C 27.171 219.042,27.366 218.901,27.432 218.728 C 27.499 218.554,27.842 218.312,28.196 218.189 C 28.766 217.990,28.970 217.621,28.858 216.987 C 28.841 216.886,29.027 216.750,29.273 216.686 C 29.518 216.622,29.719 216.429,29.719 216.258 C 29.719 216.087,29.890 215.881,30.100 215.801 C 30.309 215.720,30.692 215.426,30.951 215.147 C 31.441 214.618,31.841 214.454,31.570 214.894 C 31.478 215.042,31.509 215.088,31.642 215.006 C 31.769 214.928,31.937 214.603,32.017 214.285 C 32.097 213.966,32.306 213.562,32.482 213.386 C 32.658 213.211,32.801 212.826,32.801 212.532 C 32.801 212.215,32.930 211.998,33.117 211.998 C 33.465 211.998,33.786 211.243,33.580 210.910 C 33.508 210.794,33.635 210.600,33.862 210.478 C 34.123 210.339,34.282 210.002,34.294 209.564 C 34.305 209.183,34.484 208.683,34.693 208.453 C 35.038 208.072,34.973 207.931,34.491 208.015 C 34.391 208.032,34.373 207.943,34.451 207.817 C 34.529 207.691,34.685 207.645,34.798 207.714 C 34.911 207.784,35.003 207.736,35.003 207.608 C 35.003 207.480,34.892 207.375,34.756 207.375 C 34.573 207.375,34.573 207.297,34.755 207.078 C 35.069 206.699,35.111 79.158,34.797 79.353 C 34.685 79.422,34.525 79.369,34.442 79.234 C 34.346 79.080,34.443 79.018,34.702 79.067 C 35.000 79.124,35.132 79.371,35.181 79.969 C 35.226 80.507,35.359 80.793,35.566 80.793 C 35.741 80.793,35.896 80.892,35.911 81.013 C 35.926 81.134,35.963 81.332,35.993 81.453 C 36.024 81.574,36.061 81.772,36.076 81.893 C 36.091 82.014,36.302 82.113,36.544 82.113 C 36.786 82.113,36.984 82.251,36.984 82.420 C 36.984 82.589,37.139 82.786,37.328 82.859 C 37.585 82.957,37.641 83.186,37.549 83.764 C 37.458 84.336,37.531 84.641,37.827 84.938 C 38.048 85.159,38.292 85.505,38.370 85.708 C 38.448 85.910,38.613 86.076,38.738 86.076 C 38.863 86.076,38.965 86.423,38.965 86.846 C 38.965 87.470,39.049 87.617,39.406 87.617 C 39.699 87.617,39.846 87.764,39.846 88.057 C 39.846 88.302,39.993 88.498,40.176 88.498 C 40.415 88.498,40.506 88.744,40.506 89.391 C 40.506 89.924,40.594 90.230,40.724 90.150 C 40.853 90.070,40.883 90.169,40.796 90.396 C 40.684 90.687,40.736 90.742,41.018 90.634 C 41.325 90.517,41.387 90.639,41.387 91.359 C 41.387 91.960,41.471 92.195,41.662 92.125 C 42.112 91.960,42.640 92.396,42.346 92.690 C 42.022 93.014,42.227 93.783,42.599 93.640 C 42.761 93.578,42.952 93.731,43.034 93.988 C 43.114 94.241,43.272 94.391,43.384 94.322 C 43.583 94.198,43.694 94.802,43.622 95.617 C 43.601 95.857,43.767 96.070,44.028 96.138 C 44.341 96.220,44.469 96.439,44.469 96.889 C 44.469 97.238,44.571 97.523,44.696 97.523 C 44.821 97.523,44.989 97.697,45.071 97.909 C 45.152 98.121,45.391 98.442,45.602 98.624 C 45.842 98.830,46.006 99.327,46.038 99.945 C 46.109 101.294,46.156 101.384,46.823 101.439 C 47.542 101.499,47.563 101.519,47.618 102.240 C 47.643 102.561,47.792 102.904,47.949 103.001 C 48.105 103.098,48.264 103.465,48.302 103.817 C 48.342 104.198,48.516 104.487,48.731 104.529 C 48.981 104.578,49.092 104.831,49.092 105.355 C 49.092 105.945,49.182 106.109,49.503 106.109 C 49.830 106.109,49.899 106.244,49.838 106.767 C 49.754 107.494,50.097 108.613,50.357 108.460 C 50.641 108.293,51.549 108.735,51.405 108.969 C 51.329 109.091,51.471 109.191,51.721 109.191 C 52.133 109.191,52.174 109.324,52.174 110.659 C 52.174 111.466,52.235 112.065,52.310 111.990 C 52.522 111.778,53.101 112.460,52.936 112.726 C 52.855 112.858,52.996 113.017,53.252 113.084 C 53.670 113.193,53.869 113.805,53.732 114.556 C 53.713 114.662,53.840 114.694,54.014 114.627 C 54.250 114.537,54.365 114.744,54.460 115.425 C 54.531 115.931,54.607 116.460,54.629 116.600 C 54.651 116.740,54.801 116.803,54.962 116.741 C 55.147 116.671,55.256 116.793,55.256 117.069 C 55.256 117.311,55.405 117.566,55.586 117.636 C 55.768 117.706,55.916 117.914,55.916 118.100 C 55.916 118.290,56.108 118.437,56.357 118.437 C 56.723 118.437,56.797 118.584,56.797 119.316 C 56.797 119.941,56.918 120.270,57.215 120.456 C 57.445 120.599,57.583 120.848,57.522 121.008 C 57.345 121.468,57.655 122.400,57.984 122.400 C 58.149 122.400,58.342 122.697,58.415 123.060 C 58.492 123.447,58.686 123.720,58.883 123.720 C 59.072 123.720,59.218 123.913,59.218 124.161 C 59.218 124.405,59.365 124.601,59.549 124.601 C 59.735 124.601,59.879 124.798,59.879 125.054 C 59.879 125.304,59.971 125.451,60.084 125.381 C 60.372 125.203,60.522 125.520,60.561 126.387 C 60.609 127.433,60.758 127.930,60.984 127.790 C 61.206 127.653,61.689 128.441,61.500 128.630 C 61.432 128.698,61.448 128.871,61.535 129.013 C 61.654 129.204,61.744 129.194,61.884 128.972 C 62.039 128.728,62.079 128.734,62.102 129.004 C 62.118 129.185,62.154 129.433,62.182 129.554 C 62.210 129.675,62.249 129.997,62.267 130.270 C 62.285 130.542,62.443 130.765,62.617 130.765 C 62.825 130.765,62.958 131.051,63.003 131.591 C 63.045 132.107,63.174 132.395,63.346 132.361 C 63.498 132.331,63.597 132.426,63.566 132.573 C 63.536 132.720,63.730 132.940,63.996 133.061 C 64.312 133.205,64.504 133.515,64.547 133.950 C 64.592 134.415,64.724 134.609,64.980 134.590 C 65.200 134.573,65.303 134.679,65.237 134.852 C 65.175 135.011,65.332 135.270,65.584 135.428 C 65.943 135.652,66.043 135.939,66.043 136.749 C 66.043 137.318,66.144 137.846,66.267 137.922 C 66.390 137.998,66.424 138.168,66.343 138.299 C 66.255 138.442,66.298 138.475,66.449 138.381 C 66.589 138.295,66.703 138.335,66.703 138.470 C 66.703 138.605,66.793 138.661,66.903 138.593 C 67.013 138.525,67.051 138.668,66.987 138.910 C 66.907 139.217,66.980 139.351,67.228 139.351 C 67.463 139.351,67.584 139.542,67.584 139.914 C 67.584 140.233,67.679 140.418,67.804 140.341 C 67.925 140.266,68.024 140.360,68.024 140.548 C 68.024 140.737,68.148 140.867,68.299 140.837 C 68.458 140.805,68.545 140.954,68.505 141.189 C 68.466 141.413,68.530 141.537,68.647 141.465 C 68.913 141.301,69.125 141.834,69.125 142.671 C 69.125 143.082,69.239 143.313,69.440 143.313 C 69.765 143.313,70.133 144.091,70.039 144.579 C 70.010 144.730,70.139 144.854,70.326 144.854 C 70.513 144.854,70.674 144.928,70.685 145.019 C 70.695 145.110,70.728 145.520,70.758 145.931 C 70.787 146.341,70.952 146.787,71.124 146.921 C 71.551 147.255,72.159 148.058,71.841 147.867 C 71.680 147.771,71.606 147.857,71.642 148.100 C 71.674 148.313,71.860 148.488,72.056 148.489 C 72.483 148.492,73.071 149.216,73.081 149.752 C 73.084 149.964,73.236 150.138,73.418 150.138 C 73.703 150.138,73.882 150.828,73.774 151.513 C 73.760 151.604,73.946 151.679,74.188 151.679 C 74.564 151.679,74.629 151.825,74.629 152.676 C 74.629 153.360,74.732 153.714,74.959 153.800 C 75.140 153.870,75.289 154.121,75.289 154.357 C 75.289 154.593,75.379 154.731,75.489 154.663 C 75.598 154.595,75.636 154.738,75.573 154.980 C 75.488 155.306,75.566 155.421,75.871 155.421 C 76.190 155.421,76.283 155.583,76.282 156.136 C 76.280 156.754,76.377 156.881,76.995 157.063 C 77.610 157.244,77.711 157.373,77.711 157.980 C 77.711 158.888,77.904 159.384,78.260 159.384 C 78.415 159.384,78.528 159.555,78.512 159.764 C 78.495 159.973,78.630 160.146,78.811 160.149 C 79.037 160.152,79.164 160.434,79.213 161.035 C 79.252 161.519,79.426 161.994,79.598 162.091 C 79.771 162.188,79.912 162.464,79.912 162.704 C 79.912 162.944,80.063 163.198,80.248 163.269 C 80.517 163.372,80.530 163.462,80.315 163.722 C 80.098 163.982,80.108 164.037,80.364 164.000 C 81.238 163.875,81.427 164.014,81.495 164.832 C 81.547 165.460,81.655 165.650,81.948 165.627 C 82.271 165.601,82.334 165.788,82.334 166.783 C 82.334 167.691,82.411 167.969,82.664 167.969 C 82.886 167.969,82.994 168.192,82.994 168.650 C 82.994 169.146,83.114 169.363,83.434 169.446 C 83.676 169.510,83.875 169.695,83.875 169.858 C 83.875 170.022,84.056 170.252,84.278 170.371 C 84.565 170.525,84.656 170.768,84.591 171.210 C 84.520 171.693,84.676 172.020,85.288 172.668 C 85.721 173.128,86.076 173.646,86.076 173.819 C 86.076 173.992,86.274 174.133,86.516 174.133 C 86.900 174.133,86.957 174.281,86.960 175.289 C 86.962 176.005,87.034 176.333,87.149 176.151 C 87.372 175.800,87.668 176.347,87.704 177.178 C 87.717 177.460,87.900 177.818,88.112 177.973 C 88.324 178.128,88.498 178.367,88.498 178.505 C 88.498 178.643,88.646 178.756,88.828 178.756 C 89.009 178.756,89.158 178.855,89.158 178.976 C 89.158 179.097,89.296 179.196,89.465 179.196 C 89.799 179.196,90.039 179.658,90.039 180.302 C 90.039 180.527,90.153 180.782,90.293 180.869 C 90.460 180.972,90.492 180.920,90.386 180.716 C 90.298 180.546,90.375 180.590,90.557 180.814 C 90.740 181.038,90.836 181.360,90.770 181.529 C 90.692 181.734,90.808 181.838,91.116 181.838 C 91.376 181.838,91.580 181.979,91.580 182.161 C 91.580 182.338,91.780 182.591,92.026 182.722 C 92.272 182.853,92.405 183.070,92.322 183.204 C 92.237 183.342,92.272 183.385,92.403 183.304 C 92.530 183.226,92.868 183.367,93.153 183.617 C 93.438 183.868,93.522 183.997,93.341 183.905 C 93.159 183.812,93.258 184.001,93.561 184.325 C 93.864 184.648,94.235 184.914,94.386 184.916 C 94.538 184.918,94.662 185.063,94.662 185.237 C 94.662 185.412,94.776 185.625,94.916 185.712 C 95.086 185.817,95.112 185.767,94.993 185.560 C 94.851 185.309,94.874 185.303,95.114 185.526 C 95.277 185.677,95.588 185.801,95.806 185.801 C 96.024 185.801,96.203 185.949,96.203 186.131 C 96.203 186.393,96.521 186.461,97.744 186.461 C 99.062 186.461,99.286 186.517,99.291 186.846 C 99.310 187.854,99.957 187.964,105.761 187.944 C 109.851 187.930,111.242 187.857,111.319 187.655 C 111.376 187.507,111.614 187.335,111.848 187.274 C 112.082 187.213,112.273 187.005,112.273 186.812 C 112.273 186.533,112.524 186.461,113.497 186.461 C 114.258 186.461,114.669 186.378,114.584 186.241 C 114.440 186.007,115.406 185.550,115.858 185.638 C 116.005 185.667,116.096 185.517,116.061 185.305 C 116.017 185.043,116.140 184.920,116.446 184.920 C 116.694 184.920,116.896 184.792,116.896 184.636 C 116.896 184.479,117.218 184.256,117.611 184.140 C 118.164 183.978,118.343 183.791,118.397 183.324 C 118.446 182.896,118.591 182.719,118.892 182.719 C 119.126 182.719,119.306 182.644,119.291 182.554 C 119.221 182.109,119.347 181.838,119.622 181.838 C 119.790 181.838,119.981 181.630,120.048 181.376 C 120.114 181.121,120.267 180.974,120.388 181.049 C 120.508 181.123,120.670 180.985,120.747 180.741 C 120.825 180.497,121.036 180.297,121.217 180.297 C 121.397 180.297,121.487 180.204,121.417 180.090 C 121.347 179.976,121.495 179.692,121.746 179.458 C 121.997 179.224,122.283 178.747,122.381 178.399 C 122.479 178.051,122.672 177.790,122.810 177.821 C 122.952 177.852,123.060 177.600,123.060 177.241 C 123.060 176.791,123.188 176.573,123.500 176.491 C 123.761 176.423,123.941 176.191,123.941 175.922 C 123.941 175.609,124.043 175.507,124.271 175.595 C 124.527 175.693,124.601 175.543,124.601 174.927 C 124.601 174.203,124.761 174.019,125.316 174.107 C 125.407 174.121,125.482 173.786,125.482 173.363 C 125.482 172.790,125.576 172.592,125.848 172.592 C 126.050 172.592,126.153 172.530,126.077 172.454 C 125.896 172.272,126.532 171.051,126.808 171.051 C 126.926 171.051,127.011 170.977,126.996 170.886 C 126.892 170.222,127.068 169.510,127.337 169.510 C 127.921 169.510,128.536 168.456,128.434 167.632 C 128.338 166.856,129.229 165.548,129.853 165.548 C 129.991 165.548,130.105 165.246,130.105 164.878 C 130.105 164.510,130.303 163.996,130.545 163.736 C 130.801 163.460,130.985 162.959,130.985 162.534 C 130.985 162.033,131.088 161.805,131.315 161.805 C 131.497 161.805,131.634 161.731,131.620 161.640 C 131.495 160.849,131.686 160.264,132.070 160.264 C 132.644 160.264,133.199 159.673,133.033 159.239 C 132.948 159.017,133.089 158.743,133.416 158.496 C 133.807 158.201,133.937 157.885,133.946 157.204 C 133.955 156.486,134.038 156.303,134.355 156.302 C 134.584 156.302,134.691 156.200,134.607 156.065 C 134.527 155.934,134.669 155.633,134.924 155.396 C 135.179 155.158,135.400 154.868,135.416 154.752 C 135.518 153.961,135.850 153.220,136.100 153.220 C 136.233 153.220,136.279 153.157,136.203 153.081 C 135.995 152.873,136.477 152.086,136.720 152.236 C 136.835 152.307,136.929 152.106,136.929 151.789 C 136.929 151.460,136.834 151.271,136.709 151.348 C 136.588 151.423,136.489 151.390,136.489 151.275 C 136.489 151.160,136.644 151.006,136.833 150.933 C 137.022 150.861,137.115 150.701,137.039 150.578 C 136.963 150.455,137.081 150.287,137.300 150.203 C 137.807 150.011,138.250 149.578,138.250 149.273 C 138.250 149.143,138.360 149.037,138.494 149.037 C 138.628 149.037,138.683 148.896,138.617 148.724 C 138.551 148.553,138.689 148.191,138.924 147.920 C 139.191 147.613,139.351 147.103,139.351 146.561 C 139.351 145.880,139.445 145.669,139.788 145.579 C 140.029 145.516,140.175 145.381,140.112 145.280 C 139.840 144.840,140.285 143.974,140.782 143.974 C 141.280 143.974,141.663 143.451,141.436 143.083 C 141.371 142.978,141.570 142.727,141.879 142.525 C 142.187 142.323,142.426 142.046,142.410 141.910 C 142.294 140.932,142.469 140.249,142.868 140.122 C 143.108 140.046,143.294 139.916,143.283 139.832 C 143.216 139.364,143.348 139.097,143.598 139.193 C 143.789 139.266,143.900 139.074,143.933 138.611 C 143.961 138.231,144.128 137.811,144.305 137.678 C 144.482 137.545,144.654 137.198,144.686 136.907 C 144.718 136.616,144.917 136.308,145.129 136.221 C 145.377 136.119,145.515 135.824,145.515 135.395 C 145.515 134.955,145.625 134.728,145.838 134.728 C 146.022 134.728,146.111 134.597,146.045 134.425 C 145.971 134.232,146.135 134.070,146.492 133.980 C 146.995 133.854,147.056 133.729,147.056 132.821 C 147.056 132.107,147.170 131.720,147.441 131.522 C 147.653 131.368,147.838 131.134,147.854 131.003 C 147.869 130.872,147.894 130.616,147.909 130.435 C 147.924 130.253,148.085 130.105,148.266 130.105 C 148.462 130.105,148.597 129.903,148.597 129.609 C 148.597 129.336,148.894 128.832,149.258 128.488 C 149.622 128.145,149.863 127.774,149.795 127.663 C 149.727 127.553,149.776 127.463,149.904 127.463 C 150.033 127.463,150.138 127.173,150.138 126.819 C 150.138 126.396,150.262 126.150,150.500 126.103 C 150.744 126.055,150.891 125.745,150.951 125.151 C 151.001 124.667,151.141 124.172,151.263 124.051 C 151.411 123.903,151.432 123.969,151.324 124.252 C 151.212 124.546,151.241 124.625,151.421 124.514 C 151.563 124.426,151.679 124.104,151.679 123.797 C 151.679 123.424,151.825 123.201,152.119 123.124 C 152.491 123.026,152.559 122.823,152.559 121.811 C 152.559 121.085,152.644 120.665,152.775 120.746 C 153.083 120.936,153.880 120.462,153.880 120.087 C 153.880 119.914,153.756 119.802,153.605 119.839 C 153.453 119.876,153.405 119.864,153.496 119.813 C 153.588 119.762,153.596 119.613,153.515 119.481 C 153.426 119.337,153.493 119.291,153.686 119.365 C 153.914 119.452,154.002 119.324,153.997 118.907 C 153.992 118.487,154.097 118.335,154.375 118.357 C 154.620 118.377,154.761 118.233,154.761 117.963 C 154.761 117.691,154.889 117.560,155.117 117.602 C 155.375 117.649,155.497 117.463,155.557 116.933 C 155.604 116.530,155.790 115.988,155.971 115.728 C 156.153 115.469,156.302 114.982,156.302 114.646 C 156.302 114.264,156.419 114.034,156.614 114.034 C 156.788 114.034,156.997 113.717,157.083 113.322 C 157.240 112.610,157.799 112.000,158.115 112.195 C 158.269 112.291,158.372 111.954,158.309 111.558 C 158.295 111.467,158.373 111.392,158.484 111.392 C 158.594 111.392,158.655 111.126,158.619 110.801 C 158.547 110.145,159.044 109.428,159.238 109.908 C 159.299 110.059,159.357 109.822,159.366 109.383 C 159.376 108.916,159.538 108.459,159.756 108.282 C 160.073 108.025,160.101 108.026,159.942 108.289 C 159.812 108.506,159.837 108.549,160.025 108.432 C 160.173 108.341,160.248 108.145,160.191 107.997 C 160.134 107.849,160.276 107.611,160.506 107.467 C 160.842 107.258,160.925 106.944,160.925 105.887 C 160.925 104.702,160.971 104.568,161.378 104.568 C 161.627 104.568,161.769 104.468,161.694 104.346 C 161.618 104.224,161.786 104.032,162.066 103.920 C 162.346 103.807,162.488 103.709,162.381 103.701 C 162.274 103.694,162.447 103.482,162.766 103.231 C 163.085 102.980,163.345 102.658,163.343 102.516 C 163.341 102.360,163.246 102.388,163.106 102.587 C 162.898 102.880,162.886 102.880,162.999 102.587 C 163.069 102.405,163.187 102.083,163.262 101.871 C 163.336 101.659,163.535 101.486,163.702 101.486 C 163.920 101.486,164.007 101.179,164.007 100.411 C 164.007 99.521,164.082 99.316,164.447 99.221 C 164.767 99.137,164.887 98.920,164.887 98.425 C 164.887 98.024,165.001 97.744,165.164 97.744 C 165.557 97.744,166.125 96.799,165.798 96.690 C 165.321 96.531,165.551 96.251,166.270 96.116 C 166.953 95.988,166.995 95.925,167.037 94.976 C 167.088 93.800,167.210 93.537,167.632 93.699 C 167.856 93.785,167.936 93.640,167.922 93.170 C 167.901 92.423,168.129 91.956,168.425 92.139 C 168.537 92.209,168.630 92.053,168.630 91.792 C 168.630 91.532,168.828 91.067,169.070 90.759 C 169.333 90.425,169.510 89.866,169.510 89.372 C 169.510 88.840,169.628 88.499,169.840 88.418 C 170.022 88.348,170.171 88.139,170.171 87.954 C 170.171 87.749,170.369 87.617,170.677 87.617 C 171.400 87.617,171.712 87.210,171.712 86.267 C 171.712 85.635,171.815 85.412,172.158 85.304 C 172.403 85.226,172.589 85.046,172.572 84.904 C 172.455 83.955,172.624 82.994,172.908 82.994 C 173.088 82.994,173.253 82.735,173.293 82.389 C 173.341 81.970,173.482 81.793,173.748 81.814 C 174.057 81.838,174.134 81.665,174.135 80.933 C 174.136 80.178,174.230 79.979,174.686 79.767 C 174.987 79.627,175.179 79.603,175.111 79.712 C 175.043 79.822,175.084 79.912,175.203 79.912 C 175.321 79.912,175.467 79.788,175.528 79.637 C 175.617 79.417,175.643 79.417,175.657 79.637 C 175.666 79.788,175.872 79.912,176.114 79.912 C 176.501 79.912,176.555 80.059,176.555 81.123 C 176.555 82.187,176.502 82.334,176.114 82.334 C 175.418 82.334,175.420 203.302,176.116 203.523 C 176.532 203.655,176.555 203.860,176.555 207.403 C 176.555 209.548,176.639 211.091,176.752 211.021 C 176.973 210.884,177.215 211.390,177.215 211.990 C 177.215 212.208,177.413 212.439,177.655 212.502 C 177.916 212.570,178.096 212.802,178.096 213.071 C 178.096 213.384,178.198 213.486,178.426 213.398 C 178.683 213.300,178.756 213.453,178.756 214.086 C 178.756 214.716,178.856 214.927,179.196 215.016 C 179.440 215.080,179.637 215.316,179.637 215.546 C 179.637 215.774,179.785 215.960,179.967 215.960 C 180.149 215.960,180.297 216.109,180.297 216.291 C 180.297 216.474,180.493 216.621,180.737 216.621 C 180.980 216.621,181.178 216.759,181.178 216.927 C 181.178 217.096,181.326 217.291,181.508 217.361 C 181.690 217.431,181.838 217.639,181.838 217.825 C 181.838 218.011,182.028 218.162,182.264 218.162 C 182.498 218.162,182.750 218.355,182.825 218.591 C 182.908 218.850,183.087 218.972,183.280 218.898 C 183.456 218.830,183.599 218.885,183.599 219.019 C 183.599 219.153,183.797 219.461,184.040 219.703 C 184.707 220.370,203.192 220.396,203.192 219.730 C 203.192 219.195,203.614 218.871,204.238 218.926 C 204.510 218.949,204.688 218.924,204.633 218.869 C 204.497 218.733,204.979 218.279,205.449 218.101 C 205.660 218.021,205.834 217.798,205.834 217.605 C 205.834 217.413,205.940 217.321,206.069 217.400 C 206.198 217.480,206.356 217.347,206.419 217.104 C 206.483 216.860,206.724 216.612,206.955 216.552 C 207.186 216.491,207.375 216.287,207.375 216.098 C 207.375 215.883,207.498 215.801,207.705 215.881 C 207.930 215.967,208.035 215.868,208.035 215.569 C 208.035 215.314,208.222 215.082,208.482 215.014 C 208.727 214.950,208.914 214.815,208.896 214.714 C 208.815 214.253,208.966 213.965,209.666 213.244 C 210.079 212.819,210.482 212.264,210.563 212.011 C 210.643 211.758,210.789 211.601,210.888 211.662 C 210.987 211.723,211.130 211.600,211.206 211.390 C 211.282 211.179,211.488 210.761,211.663 210.459 C 212.046 209.799,212.180 15.712,211.797 15.948 C 211.682 16.019,211.516 15.962,211.429 15.820 C 211.329 15.659,211.365 15.621,211.523 15.719 C 211.663 15.806,211.779 15.796,211.780 15.698 C 211.781 15.600,211.810 14.554,211.844 13.374 C 211.878 12.193,211.827 11.227,211.732 11.227 C 211.636 11.227,211.558 11.122,211.558 10.994 C 211.558 10.866,211.666 10.828,211.800 10.911 C 211.974 11.019,211.976 10.938,211.807 10.622 C 211.678 10.382,211.644 10.106,211.730 10.010 C 211.817 9.914,211.764 9.907,211.613 9.994 C 211.461 10.081,211.337 10.048,211.337 9.919 C 211.337 9.791,211.139 9.686,210.897 9.686 C 210.552 9.686,210.451 9.531,210.431 8.971 C 210.417 8.577,210.393 8.116,210.376 7.945 C 210.360 7.775,210.000 7.514,209.576 7.366 C 209.152 7.218,208.830 6.986,208.861 6.851 C 208.891 6.715,208.718 6.604,208.476 6.604 C 208.120 6.604,208.035 6.458,208.035 5.845 C 208.035 5.342,207.851 4.887,207.489 4.497 C 207.189 4.172,207.007 3.804,207.085 3.677 C 207.172 3.536,207.087 3.501,206.861 3.588 C 206.621 3.680,206.494 3.616,206.494 3.405 C 206.494 3.227,206.346 3.082,206.164 3.082 C 205.982 3.082,205.834 3.004,205.834 2.909 C 205.834 2.813,205.514 2.711,205.123 2.681 C 204.732 2.651,204.331 2.482,204.231 2.304 C 204.132 2.127,203.907 1.981,203.731 1.981 C 203.556 1.981,203.412 1.777,203.412 1.528 C 203.412 1.279,203.318 1.133,203.203 1.204 C 203.088 1.275,202.887 1.132,202.755 0.887 C 202.624 0.641,202.371 0.440,202.194 0.440 C 202.016 0.440,201.870 0.316,201.868 0.165 C 201.866 -0.018,201.793 -0.000,201.651 0.220 C 201.509 0.440,201.437 0.459,201.434 0.275 C 201.432 0.060,199.565 0.000,192.845 0.000 C 187.268 0.000,184.260 0.077,184.260 0.220 C 184.260 0.341,184.065 0.440,183.826 0.440 C 183.532 0.440,183.434 0.546,183.520 0.771 C 183.592 0.959,183.524 1.101,183.362 1.101 C 183.205 1.101,182.861 1.304,182.596 1.553 C 182.332 1.801,181.915 2.019,181.671 2.038 C 181.405 2.058,181.270 2.186,181.336 2.357 C 181.414 2.561,181.193 2.642,180.554 2.642 C 179.662 2.642,179.662 2.642,179.594 3.577 C 179.557 4.092,179.425 4.513,179.301 4.513 C 179.177 4.513,178.831 4.750,178.531 5.041 C 178.231 5.331,178.110 5.498,178.261 5.413 C 178.412 5.327,178.536 5.362,178.536 5.491 C 178.536 5.619,178.387 5.724,178.206 5.724 C 178.024 5.724,177.876 5.817,177.876 5.931 C 177.876 6.046,177.578 6.315,177.215 6.529 C 176.852 6.744,176.555 7.028,176.555 7.161 C 176.555 7.293,176.357 7.615,176.114 7.874 C 175.872 8.134,175.674 8.648,175.674 9.017 C 175.674 9.465,175.565 9.686,175.344 9.686 C 175.162 9.686,175.014 9.881,175.014 10.120 C 175.014 10.404,174.906 10.512,174.701 10.433 C 174.428 10.328,173.473 11.032,173.473 11.337 C 173.473 11.398,173.473 11.627,173.473 11.846 C 173.473 12.066,173.297 12.437,173.083 12.672 C 172.869 12.906,172.702 13.247,172.713 13.429 C 172.743 13.962,172.370 14.554,172.107 14.392 C 171.963 14.303,171.926 14.342,172.016 14.487 C 172.100 14.623,171.950 14.951,171.684 15.218 C 171.357 15.545,171.165 16.065,171.092 16.822 C 170.981 17.977,170.560 18.543,169.979 18.320 C 169.772 18.241,169.715 18.289,169.817 18.455 C 169.905 18.596,169.872 18.712,169.743 18.712 C 169.615 18.712,169.510 18.808,169.510 18.925 C 169.510 19.043,169.684 19.076,169.895 19.000 C 170.107 18.924,170.207 18.943,170.117 19.042 C 170.028 19.141,170.065 19.355,170.199 19.517 C 170.391 19.748,170.342 19.819,169.977 19.840 C 169.164 19.888,169.071 19.918,169.026 20.143 C 169.002 20.264,168.808 20.512,168.593 20.693 C 168.214 21.015,168.024 21.722,167.987 22.950 C 167.976 23.312,167.846 23.555,167.663 23.555 C 167.326 23.555,167.089 24.018,167.089 24.674 C 167.089 24.906,166.987 25.096,166.863 25.096 C 166.739 25.096,166.543 25.344,166.428 25.647 C 166.313 25.949,166.117 26.197,165.993 26.197 C 165.869 26.197,165.768 26.346,165.768 26.527 C 165.768 26.709,165.693 26.846,165.603 26.831 C 165.038 26.742,164.916 26.917,164.977 27.727 C 165.021 28.308,164.943 28.634,164.742 28.712 C 164.576 28.775,164.338 29.053,164.214 29.328 C 164.090 29.604,163.845 30.077,163.670 30.380 C 163.496 30.682,163.351 31.191,163.349 31.510 C 163.347 31.902,163.204 32.127,162.907 32.204 C 162.626 32.278,162.466 32.506,162.464 32.836 C 162.458 34.013,162.371 34.292,162.050 34.169 C 161.825 34.083,161.769 34.151,161.863 34.396 C 161.941 34.599,161.864 34.797,161.681 34.868 C 161.507 34.934,161.365 35.223,161.365 35.509 C 161.365 35.899,161.247 36.024,160.892 36.011 C 160.632 36.001,160.371 36.131,160.313 36.299 C 160.253 36.472,160.306 36.544,160.435 36.464 C 160.577 36.377,160.566 36.532,160.409 36.872 C 160.269 37.174,160.037 37.422,159.894 37.423 C 159.542 37.425,159.364 38.061,159.467 38.949 C 159.534 39.523,159.463 39.704,159.138 39.789 C 158.837 39.868,158.723 40.097,158.723 40.627 C 158.723 41.155,158.606 41.395,158.298 41.492 C 158.054 41.570,157.810 41.916,157.724 42.307 C 157.625 42.759,157.517 42.893,157.402 42.708 C 157.279 42.508,157.188 42.563,157.080 42.902 C 156.998 43.162,156.850 43.325,156.753 43.265 C 156.572 43.153,156.307 44.148,156.294 44.992 C 156.286 45.530,155.708 46.294,155.146 46.509 C 154.883 46.610,154.761 46.895,154.761 47.410 C 154.761 47.877,154.635 48.212,154.430 48.291 C 154.197 48.380,154.100 48.744,154.100 49.525 C 154.100 50.412,154.027 50.633,153.733 50.633 C 153.531 50.633,153.428 50.694,153.503 50.769 C 153.673 50.940,153.118 51.513,152.782 51.513 C 152.645 51.513,152.591 51.608,152.663 51.723 C 152.734 51.839,152.567 52.061,152.291 52.218 C 152.014 52.376,151.779 52.628,151.767 52.779 C 151.701 53.600,151.654 53.715,151.384 53.715 C 151.191 53.715,151.078 54.035,151.054 54.650 C 151.028 55.305,150.882 55.687,150.567 55.925 C 150.266 56.151,150.166 56.395,150.266 56.656 C 150.374 56.936,150.207 57.223,149.671 57.674 C 149.072 58.179,148.981 58.357,149.202 58.584 C 149.596 58.988,149.542 59.218,149.053 59.218 C 148.405 59.218,147.936 59.827,147.936 60.665 C 147.936 61.202,147.837 61.420,147.593 61.420 C 147.404 61.420,147.311 61.519,147.386 61.640 C 147.461 61.761,147.400 61.860,147.252 61.860 C 147.104 61.860,147.048 61.926,147.128 62.006 C 147.208 62.086,147.075 62.289,146.834 62.458 C 146.481 62.706,146.395 63.017,146.395 64.048 C 146.395 65.146,146.332 65.348,145.955 65.446 C 145.634 65.530,145.515 65.747,145.515 66.242 C 145.515 66.676,145.404 66.924,145.210 66.924 C 145.043 66.924,144.850 67.134,144.783 67.392 C 144.702 67.701,144.545 67.817,144.323 67.732 C 143.849 67.550,143.314 68.399,143.310 69.339 C 143.308 69.766,143.200 70.264,143.069 70.446 C 142.868 70.725,142.851 70.716,142.955 70.391 C 143.110 69.911,142.749 69.877,142.566 70.354 C 142.493 70.545,142.433 71.048,142.433 71.470 C 142.433 71.893,142.284 72.387,142.102 72.569 C 141.921 72.750,141.772 73.090,141.772 73.323 C 141.772 73.592,141.620 73.748,141.359 73.748 C 140.860 73.748,140.361 74.296,140.509 74.681 C 140.717 75.224,140.679 75.372,140.319 75.425 C 139.759 75.507,139.577 75.785,139.385 76.846 C 139.288 77.382,139.113 77.803,138.995 77.781 C 138.878 77.759,138.758 78.052,138.729 78.433 C 138.679 79.086,138.328 79.546,138.022 79.357 C 137.945 79.310,137.883 79.562,137.883 79.919 C 137.883 80.275,137.718 80.749,137.516 80.972 C 137.314 81.196,137.149 81.740,137.149 82.186 C 137.149 82.847,137.069 82.994,136.709 82.994 C 136.467 82.994,136.280 83.068,136.295 83.159 C 136.364 83.597,136.242 83.875,135.980 83.875 C 135.289 83.875,134.889 84.471,134.802 85.635 C 134.753 86.288,134.576 86.914,134.404 87.047 C 134.234 87.179,134.064 87.584,134.026 87.947 C 133.979 88.395,133.848 88.590,133.619 88.554 C 133.411 88.521,133.266 88.682,133.245 88.972 C 133.225 89.231,133.090 89.553,132.945 89.686 C 132.748 89.868,132.726 89.851,132.858 89.619 C 132.976 89.412,132.951 89.362,132.780 89.467 C 132.641 89.554,132.526 89.808,132.526 90.033 C 132.526 90.258,132.402 90.488,132.251 90.543 C 132.031 90.624,132.031 90.702,132.251 90.936 C 132.646 91.354,132.591 91.580,132.093 91.580 C 131.808 91.580,131.701 91.687,131.780 91.893 C 131.848 92.072,131.704 92.311,131.443 92.451 C 131.191 92.586,130.985 92.791,130.985 92.908 C 130.985 93.025,130.787 93.319,130.545 93.561 C 130.272 93.833,130.105 94.295,130.105 94.772 C 130.105 95.271,130.008 95.523,129.829 95.487 C 129.652 95.451,129.508 95.821,129.424 96.533 C 129.352 97.138,129.278 97.501,129.259 97.340 C 129.240 97.178,129.100 97.088,128.949 97.139 C 128.681 97.229,128.636 97.423,128.587 98.679 C 128.570 99.130,128.451 99.285,128.123 99.285 C 127.881 99.285,127.683 99.389,127.683 99.518 C 127.683 99.646,127.581 99.688,127.457 99.611 C 127.333 99.535,127.250 99.554,127.272 99.653 C 127.337 99.944,126.966 100.696,126.635 100.944 C 126.468 101.070,126.350 101.268,126.373 101.384 C 126.520 102.136,126.319 103.059,125.977 103.199 C 125.765 103.286,125.582 103.481,125.570 103.632 C 125.558 103.784,125.533 104.106,125.515 104.348 C 125.496 104.590,125.333 104.788,125.151 104.788 C 124.970 104.788,124.821 104.925,124.821 105.093 C 124.821 105.260,124.623 105.449,124.381 105.512 C 124.047 105.600,123.941 105.813,123.941 106.395 C 123.941 106.874,123.817 107.210,123.610 107.289 C 123.173 107.457,123.188 108.069,123.633 108.240 C 123.903 108.343,123.825 108.443,123.303 108.662 C 122.873 108.843,122.620 109.107,122.620 109.376 C 122.620 109.647,122.479 109.791,122.234 109.772 C 121.933 109.748,121.835 109.944,121.782 110.677 C 121.727 111.433,121.632 111.613,121.286 111.613 C 120.915 111.613,120.859 111.771,120.859 112.823 C 120.859 113.489,120.762 114.034,120.644 114.034 C 120.526 114.034,120.274 114.336,120.083 114.704 C 119.893 115.072,119.510 115.460,119.232 115.566 C 118.821 115.722,118.746 115.883,118.828 116.437 C 118.904 116.956,118.844 117.116,118.572 117.116 C 118.377 117.116,118.217 117.221,118.217 117.349 C 118.217 117.477,118.131 117.529,118.026 117.464 C 117.921 117.399,117.835 117.517,117.836 117.727 C 117.840 119.127,117.759 119.517,117.487 119.413 C 117.298 119.340,117.124 119.590,116.983 120.135 C 116.865 120.594,116.649 120.944,116.502 120.914 C 116.328 120.878,116.236 121.169,116.236 121.752 C 116.236 122.293,116.148 122.592,116.015 122.509 C 115.743 122.341,115.346 123.323,115.456 123.892 C 115.568 124.473,115.337 124.764,114.695 124.854 C 114.218 124.921,114.154 125.027,114.216 125.647 C 114.256 126.044,114.182 126.374,114.051 126.390 C 113.921 126.405,113.690 126.430,113.539 126.446 C 113.280 126.473,113.228 126.718,113.175 128.171 C 113.159 128.608,113.064 128.736,112.823 128.643 C 112.635 128.571,112.479 128.645,112.460 128.815 C 112.441 128.979,112.403 129.213,112.375 129.334 C 112.347 129.455,112.312 129.733,112.298 129.952 C 112.284 130.171,112.184 130.296,112.076 130.229 C 111.968 130.162,111.817 130.359,111.740 130.665 C 111.663 130.972,111.515 131.171,111.412 131.107 C 111.308 131.043,111.102 131.283,110.954 131.641 C 110.806 131.999,110.547 132.406,110.378 132.546 C 110.209 132.686,110.072 132.954,110.072 133.141 C 110.072 133.329,109.907 133.664,109.706 133.886 C 109.505 134.108,109.411 134.361,109.498 134.447 C 109.584 134.534,109.747 134.459,109.860 134.281 C 109.991 134.074,110.066 134.054,110.068 134.225 C 110.070 134.372,109.873 134.598,109.631 134.728 C 109.389 134.857,109.191 135.101,109.191 135.270 C 109.191 135.439,109.060 135.708,108.900 135.868 C 108.585 136.183,108.531 136.321,108.531 136.804 C 108.531 136.978,108.342 137.179,108.111 137.253 C 107.823 137.344,107.709 137.555,107.750 137.923 C 107.782 138.218,107.651 138.685,107.459 138.959 C 107.267 139.233,107.090 139.591,107.066 139.754 C 106.834 141.334,104.582 140.522,104.573 138.855 C 104.570 138.401,104.494 138.041,104.403 138.056 C 103.904 138.135,103.784 137.962,103.863 137.281 C 103.926 136.740,103.827 136.408,103.505 136.086 C 103.260 135.841,103.027 135.364,102.988 135.026 C 102.933 134.547,102.759 134.366,102.201 134.207 C 101.577 134.029,101.486 133.910,101.486 133.265 C 101.486 132.755,101.384 132.526,101.156 132.526 C 100.966 132.526,100.818 132.316,100.807 132.031 C 100.764 130.869,100.653 130.464,100.310 130.213 C 100.109 130.066,99.945 129.792,99.945 129.603 C 99.945 129.067,99.697 128.555,99.497 128.678 C 99.398 128.740,99.254 128.596,99.179 128.358 C 99.096 128.096,98.916 127.974,98.723 128.048 C 98.506 128.131,98.404 128.020,98.404 127.700 C 98.404 127.441,98.252 127.171,98.067 127.100 C 97.878 127.027,97.780 126.813,97.844 126.611 C 98.016 126.063,97.642 124.931,97.287 124.931 C 97.110 124.931,96.943 124.674,96.905 124.342 C 96.867 124.018,96.694 123.634,96.520 123.489 C 96.345 123.345,96.203 123.040,96.203 122.813 C 96.203 122.586,96.107 122.400,95.989 122.400 C 95.872 122.400,95.835 122.247,95.906 122.060 C 95.989 121.844,95.927 121.744,95.734 121.785 C 95.529 121.829,95.410 121.584,95.364 121.024 C 95.311 120.392,95.200 120.198,94.888 120.198 C 94.625 120.198,94.501 120.062,94.538 119.813 C 94.606 119.349,94.204 118.642,93.957 118.794 C 93.798 118.893,93.681 118.380,93.760 117.925 C 93.778 117.825,93.695 117.803,93.577 117.876 C 93.306 118.044,92.922 117.346,92.972 116.777 C 92.999 116.478,92.892 116.365,92.625 116.410 C 92.296 116.466,92.240 116.294,92.240 115.231 C 92.240 114.216,92.179 114.010,91.910 114.114 C 91.580 114.240,91.494 114.042,91.568 113.319 C 91.590 113.107,91.496 112.933,91.360 112.933 C 91.224 112.933,91.168 112.845,91.235 112.737 C 91.302 112.629,91.122 112.481,90.836 112.409 C 90.103 112.226,89.045 110.803,89.359 110.425 C 89.591 110.145,89.127 108.821,88.693 108.526 C 88.600 108.463,88.473 108.127,88.410 107.779 C 88.347 107.431,88.076 106.913,87.808 106.628 C 87.539 106.343,87.399 106.109,87.495 106.109 C 87.592 106.109,87.548 105.961,87.399 105.781 C 87.249 105.601,87.056 105.497,86.971 105.550 C 86.885 105.603,86.804 105.280,86.791 104.832 C 86.749 103.391,86.716 103.269,86.409 103.387 C 86.220 103.459,86.084 103.313,86.038 102.989 C 85.992 102.660,85.828 102.488,85.581 102.507 C 85.369 102.524,85.195 102.411,85.195 102.256 C 85.195 102.100,85.047 101.916,84.865 101.847 C 84.658 101.767,84.535 101.430,84.535 100.943 C 84.535 100.252,84.391 100.076,83.865 100.124 C 83.800 100.130,83.785 99.804,83.832 99.401 C 83.894 98.870,83.790 98.540,83.456 98.205 C 83.190 97.939,82.994 97.460,82.994 97.076 C 82.994 96.642,82.859 96.358,82.609 96.264 C 82.006 96.038,81.669 95.482,81.938 95.157 C 82.098 94.966,82.095 94.882,81.930 94.882 C 81.465 94.882,80.607 93.808,80.721 93.369 C 80.789 93.111,80.651 92.758,80.373 92.480 C 80.119 92.227,79.912 91.779,79.912 91.484 C 79.912 91.163,79.754 90.899,79.519 90.824 C 79.302 90.755,79.109 90.486,79.089 90.226 C 79.070 89.966,78.935 89.644,78.790 89.510 C 78.592 89.328,78.570 89.350,78.701 89.598 C 78.833 89.848,78.811 89.869,78.610 89.684 C 78.464 89.549,78.339 89.029,78.332 88.528 C 78.322 87.844,78.230 87.613,77.960 87.601 C 77.682 87.590,77.700 87.543,78.041 87.397 C 78.508 87.196,78.503 87.188,77.821 87.061 C 77.579 87.016,77.216 86.776,77.015 86.528 C 76.814 86.279,76.541 86.076,76.409 86.076 C 76.277 86.076,76.168 85.804,76.167 85.471 C 76.162 84.528,75.927 83.875,75.593 83.875 C 75.395 83.875,75.289 83.618,75.289 83.138 C 75.289 82.681,75.122 82.250,74.849 82.003 C 74.599 81.777,74.408 81.325,74.408 80.958 C 74.408 80.504,74.282 80.278,73.983 80.200 C 73.728 80.133,73.606 79.964,73.678 79.777 C 73.743 79.606,73.688 79.334,73.554 79.173 C 73.421 79.012,73.385 78.800,73.475 78.701 C 73.564 78.602,73.514 78.592,73.363 78.679 C 73.211 78.766,73.088 78.732,73.088 78.604 C 73.088 78.476,72.889 78.371,72.647 78.371 C 72.247 78.371,72.043 77.681,72.179 76.781 C 72.192 76.694,72.017 76.524,71.790 76.402 C 71.563 76.281,71.312 75.829,71.231 75.399 C 71.150 74.968,70.990 74.674,70.875 74.745 C 70.756 74.819,70.666 74.489,70.666 73.981 C 70.666 73.234,70.594 73.088,70.226 73.088 C 69.801 73.088,69.662 72.590,69.735 71.330 C 69.758 70.922,69.385 70.674,68.740 70.669 C 68.448 70.667,68.244 70.530,68.244 70.336 C 68.244 70.154,68.096 70.006,67.914 70.006 C 67.663 70.006,67.584 69.732,67.584 68.864 C 67.584 68.032,67.467 67.597,67.151 67.261 C 66.913 67.008,66.694 66.492,66.666 66.116 C 66.631 65.659,66.518 65.467,66.328 65.540 C 66.153 65.607,66.043 65.480,66.043 65.212 C 66.043 64.959,65.857 64.725,65.603 64.658 C 65.194 64.551,65.016 63.836,65.142 62.812 C 65.160 62.670,65.057 62.482,64.914 62.393 C 64.738 62.284,64.711 62.332,64.830 62.542 C 64.973 62.792,64.950 62.798,64.710 62.576 C 64.547 62.424,64.236 62.300,64.018 62.300 C 63.555 62.300,63.509 62.062,63.897 61.669 C 64.117 61.445,64.055 61.288,63.580 60.876 C 63.160 60.512,62.955 60.085,62.878 59.406 C 62.817 58.879,62.762 58.423,62.754 58.393 C 62.747 58.363,62.630 58.338,62.494 58.338 C 62.332 58.338,62.351 58.471,62.549 58.723 C 62.823 59.072,62.815 59.080,62.466 58.806 C 62.217 58.611,62.080 58.202,62.080 57.651 C 62.080 57.039,61.987 56.797,61.750 56.797 C 61.562 56.797,61.409 56.584,61.395 56.302 C 61.381 56.029,61.346 55.707,61.318 55.586 C 61.290 55.465,61.252 55.237,61.233 55.079 C 61.215 54.922,60.903 54.689,60.539 54.562 C 60.176 54.436,59.879 54.183,59.879 54.000 C 59.879 53.798,59.752 53.717,59.556 53.792 C 59.104 53.965,59.031 53.768,58.975 52.207 C 58.945 51.372,58.816 50.773,58.646 50.678 C 58.492 50.592,58.315 50.237,58.252 49.890 C 58.131 49.225,57.898 48.828,57.898 49.288 C 57.898 49.437,57.799 49.497,57.677 49.422 C 57.556 49.347,57.457 49.129,57.457 48.938 C 57.457 48.747,57.293 48.470,57.093 48.323 C 56.876 48.165,56.736 47.773,56.748 47.360 C 56.761 46.910,56.683 46.715,56.528 46.810 C 56.380 46.902,56.352 46.856,56.456 46.687 C 56.553 46.531,56.451 46.243,56.215 46.004 C 55.530 45.312,55.256 44.939,55.256 44.698 C 55.256 44.572,55.058 44.469,54.816 44.469 C 54.450 44.469,54.375 44.322,54.375 43.604 C 54.375 43.128,54.227 42.591,54.045 42.409 C 53.864 42.227,53.715 41.765,53.715 41.382 C 53.715 40.870,53.598 40.655,53.275 40.570 C 52.957 40.487,52.834 40.270,52.834 39.789 C 52.834 39.088,52.334 38.544,51.679 38.532 C 51.401 38.527,51.293 38.345,51.293 37.880 C 51.293 37.526,51.145 37.087,50.963 36.905 C 50.782 36.724,50.633 36.271,50.633 35.899 C 50.633 35.370,50.537 35.223,50.193 35.223 C 49.836 35.223,49.752 35.076,49.752 34.452 C 49.752 33.975,49.585 33.514,49.312 33.242 C 49.070 32.999,48.872 32.752,48.872 32.691 C 48.872 32.631,48.872 32.482,48.872 32.361 C 48.872 32.240,48.723 32.141,48.542 32.141 C 48.293 32.141,48.211 31.875,48.211 31.067 C 48.211 30.023,47.824 29.319,47.440 29.666 C 47.341 29.756,47.336 29.699,47.428 29.539 C 47.539 29.347,47.439 29.209,47.133 29.128 C 46.858 29.057,46.670 28.829,46.670 28.569 C 46.670 28.270,46.565 28.171,46.340 28.258 C 46.119 28.343,46.001 28.241,45.982 27.951 C 45.967 27.713,45.930 27.419,45.900 27.298 C 45.870 27.177,45.832 26.979,45.817 26.857 C 45.802 26.736,45.641 26.637,45.460 26.637 C 45.207 26.637,45.129 26.358,45.129 25.440 C 45.129 24.168,45.238 24.335,43.241 22.520 C 42.904 22.213,42.708 21.792,42.708 21.377 C 42.708 21.015,42.593 20.649,42.454 20.562 C 42.285 20.458,42.260 20.503,42.378 20.693 C 42.495 20.884,42.470 20.928,42.301 20.825 C 42.162 20.738,42.047 20.332,42.047 19.921 C 42.047 19.487,41.909 19.097,41.718 18.990 C 41.537 18.889,41.352 18.485,41.306 18.092 C 41.231 17.445,40.754 16.664,40.176 16.239 C 40.039 16.138,40.057 16.076,40.224 16.074 C 40.372 16.072,40.435 15.922,40.366 15.740 C 40.296 15.559,40.107 15.410,39.946 15.410 C 39.785 15.410,39.654 15.237,39.655 15.025 C 39.660 14.258,39.467 13.759,39.164 13.749 C 38.994 13.743,38.880 13.620,38.910 13.474 C 38.941 13.328,38.841 13.233,38.690 13.264 C 38.539 13.294,38.440 13.195,38.470 13.043 C 38.500 12.892,38.426 12.768,38.305 12.768 C 38.184 12.768,38.085 12.620,38.085 12.438 C 38.085 12.256,37.936 12.108,37.755 12.108 C 37.525 12.108,37.424 11.877,37.424 11.348 C 37.424 10.931,37.291 10.510,37.128 10.413 C 36.964 10.316,36.770 9.848,36.695 9.374 C 36.548 8.440,36.269 8.154,35.498 8.149 C 35.226 8.147,35.014 8.071,35.029 7.980 C 35.099 7.538,34.976 7.270,34.728 7.320 C 34.569 7.351,34.421 7.099,34.378 6.724 C 34.336 6.354,33.980 5.739,33.552 5.299 C 33.138 4.873,32.743 4.347,32.675 4.130 C 32.606 3.913,32.458 3.793,32.345 3.862 C 32.233 3.932,32.141 3.884,32.141 3.755 C 32.141 3.627,31.954 3.522,31.726 3.522 C 31.493 3.522,31.260 3.324,31.193 3.068 C 31.128 2.819,30.943 2.632,30.782 2.654 C 30.106 2.746,29.719 2.621,29.719 2.312 C 29.719 2.128,29.524 1.981,29.279 1.981 C 29.037 1.981,28.839 1.861,28.839 1.713 C 28.839 1.373,27.766 0.440,27.374 0.440 C 27.211 0.440,27.078 0.341,27.078 0.220 C 27.078 0.077,23.959 0.000,18.162 0.000 C 12.365 0.000,9.246 0.077,9.246 0.220 M268.269 0.344 C 268.197 0.533,268.049 0.634,267.941 0.567 C 267.833 0.500,267.692 0.645,267.628 0.889 C 267.564 1.134,267.429 1.319,267.328 1.301 C 266.645 1.181,266.117 1.350,266.233 1.651 C 266.356 1.972,266.138 2.077,265.526 1.993 C 265.362 1.970,265.294 2.058,265.374 2.187 C 265.510 2.407,264.491 2.979,264.111 2.895 C 264.016 2.875,263.882 3.007,263.812 3.190 C 263.742 3.373,263.558 3.522,263.403 3.522 C 263.249 3.522,263.071 3.720,263.007 3.963 C 262.944 4.205,262.734 4.403,262.541 4.403 C 262.125 4.403,262.073 4.759,262.466 4.917 C 262.686 5.006,262.686 5.032,262.466 5.046 C 262.005 5.075,262.159 5.504,262.631 5.504 C 262.873 5.504,263.071 5.615,263.071 5.751 C 263.071 5.909,262.831 5.951,262.409 5.867 C 261.897 5.764,261.686 5.833,261.476 6.169 C 261.326 6.409,261.079 6.604,260.927 6.604 C 260.774 6.604,260.649 6.802,260.649 7.045 C 260.649 7.287,260.512 7.485,260.345 7.485 C 259.991 7.485,259.676 8.440,259.995 8.549 C 260.358 8.673,260.232 8.989,259.760 9.139 C 259.447 9.238,259.349 9.404,259.438 9.686 C 259.539 10.003,259.475 10.066,259.142 9.979 C 258.570 9.829,258.338 10.268,258.764 10.694 C 258.954 10.884,259.108 10.932,259.108 10.803 C 259.108 10.673,259.307 10.567,259.549 10.567 C 260.091 10.567,260.186 11.765,259.659 11.967 C 259.476 12.037,259.327 12.368,259.325 12.706 C 259.317 14.181,258.863 14.070,258.353 12.468 C 258.246 12.133,258.163 12.108,257.895 12.331 C 257.394 12.746,257.398 204.405,257.899 204.213 C 258.230 204.086,258.314 204.286,258.237 205.021 C 258.214 205.240,258.305 205.552,258.440 205.714 C 258.574 205.875,258.659 206.092,258.629 206.196 C 258.529 206.543,259.183 207.332,259.478 207.219 C 259.638 207.158,259.780 207.242,259.793 207.406 C 259.806 207.571,259.845 208.039,259.879 208.448 C 259.920 208.943,260.150 209.370,260.570 209.730 C 260.916 210.026,261.061 210.196,260.891 210.108 C 260.687 210.003,260.635 210.036,260.738 210.203 C 260.825 210.342,260.989 210.457,261.103 210.457 C 261.506 210.457,262.245 211.400,262.245 211.915 C 262.245 212.203,262.370 212.438,262.523 212.438 C 262.675 212.438,262.965 212.689,263.165 212.995 C 263.366 213.302,263.619 213.498,263.726 213.432 C 263.834 213.366,264.077 213.533,264.267 213.804 C 264.457 214.075,264.612 214.210,264.612 214.104 C 264.612 213.998,264.856 214.194,265.153 214.541 C 265.451 214.887,265.770 215.096,265.863 215.003 C 265.955 214.911,265.884 214.744,265.706 214.631 C 265.528 214.518,265.494 214.425,265.629 214.423 C 265.765 214.421,266.112 214.765,266.400 215.188 C 266.748 215.700,267.097 215.958,267.442 215.959 C 267.813 215.960,267.925 216.055,267.835 216.291 C 267.733 216.556,267.918 216.621,268.787 216.621 C 269.685 216.621,269.890 216.697,270.011 217.077 C 270.092 217.332,270.283 217.484,270.444 217.422 C 270.603 217.362,270.779 217.488,270.835 217.702 C 270.905 217.970,271.163 218.100,271.653 218.113 C 272.049 218.125,272.584 218.336,272.852 218.587 L 273.334 219.041 328.948 219.041 C 384.332 219.041,384.561 219.039,384.700 218.601 C 384.785 218.333,385.049 218.151,385.375 218.134 C 386.314 218.086,386.381 218.060,386.709 217.611 C 386.886 217.369,387.076 217.196,387.131 217.226 C 387.438 217.394,387.892 217.238,387.892 216.964 C 387.892 216.757,388.178 216.624,388.718 216.579 C 389.234 216.536,389.523 216.408,389.488 216.236 C 389.435 215.970,389.806 215.871,390.571 215.946 C 390.772 215.966,390.999 215.788,391.074 215.551 C 391.150 215.314,391.356 215.065,391.533 214.997 C 391.710 214.929,391.855 214.731,391.855 214.557 C 391.855 214.357,392.005 214.280,392.265 214.348 C 392.504 214.410,392.908 214.242,393.238 213.942 C 393.548 213.660,394.057 213.241,394.369 213.013 C 394.681 212.784,394.937 212.502,394.937 212.387 C 394.937 212.272,395.129 211.932,395.365 211.633 C 395.600 211.334,395.738 210.947,395.671 210.773 C 395.590 210.560,395.701 210.457,396.014 210.457 C 396.432 210.457,396.584 210.230,396.500 209.731 C 396.484 209.634,396.643 209.585,396.855 209.621 C 397.066 209.657,397.241 209.554,397.243 209.393 C 397.246 209.232,397.422 208.974,397.633 208.819 C 397.845 208.664,398.019 208.276,398.019 207.956 C 398.019 207.592,398.139 207.375,398.342 207.375 C 398.539 207.375,398.616 207.246,398.539 207.045 C 398.465 206.852,398.536 206.713,398.711 206.711 C 398.941 206.708,398.934 206.659,398.679 206.494 C 398.459 206.352,398.441 206.280,398.624 206.277 C 399.068 206.272,398.939 205.803,398.459 205.677 C 397.951 205.545,397.841 204.567,398.314 204.386 C 398.476 204.324,398.622 203.926,398.638 203.501 C 398.691 202.091,399.560 201.925,399.560 203.326 C 399.560 203.737,399.659 204.073,399.780 204.073 C 399.926 204.073,400.000 172.042,400.000 108.420 C 400.000 44.799,399.926 12.768,399.780 12.768 C 399.659 12.768,399.560 13.154,399.560 13.625 C 399.560 14.709,398.992 15.036,398.668 14.140 C 398.548 13.809,398.365 13.341,398.261 13.099 C 397.127 10.461,396.969 9.576,397.563 9.204 C 398.089 8.876,398.098 8.824,397.786 8.002 C 397.600 7.512,397.512 7.454,397.349 7.712 C 397.173 7.990,397.144 7.987,397.142 7.690 C 397.140 7.500,396.791 6.939,396.368 6.444 C 395.944 5.949,395.597 5.439,395.597 5.310 C 395.597 5.182,395.449 5.134,395.267 5.204 C 395.062 5.282,394.926 5.196,394.909 4.977 C 394.894 4.782,394.857 4.524,394.827 4.403 C 394.796 4.282,394.759 4.092,394.744 3.980 C 394.729 3.869,394.424 3.713,394.066 3.635 C 393.689 3.552,393.357 3.305,393.275 3.048 C 393.168 2.711,393.009 2.636,392.613 2.735 C 392.232 2.831,392.029 2.748,391.856 2.424 C 391.726 2.180,391.474 1.981,391.297 1.981 C 391.118 1.981,390.974 1.779,390.974 1.528 C 390.974 1.279,390.880 1.133,390.765 1.204 C 390.650 1.275,390.444 1.125,390.308 0.870 C 390.165 0.603,389.927 0.457,389.746 0.526 C 389.563 0.597,389.433 0.513,389.433 0.323 C 389.433 -0.186,268.465 -0.165,268.269 0.344 M397.894 10.062 C 397.540 10.417,397.554 10.448,398.143 10.605 C 398.892 10.806,398.984 10.741,398.794 10.143 C 398.618 9.588,398.389 9.567,397.894 10.062 M291.092 14.651 C 291.651 15.202,292.367 16.168,292.684 16.797 C 294.334 20.082,295.424 21.224,298.381 22.771 C 298.974 23.081,299.569 23.426,299.704 23.538 C 300.740 24.398,301.974 24.436,328.904 24.436 C 356.446 24.436,356.462 24.435,358.173 23.349 C 358.354 23.233,359.232 22.727,360.122 22.223 C 361.610 21.382,363.456 19.831,363.456 19.423 C 363.456 19.329,363.795 18.738,364.210 18.108 C 364.624 17.479,365.026 16.766,365.103 16.524 C 365.180 16.282,365.761 15.536,366.394 14.866 L 367.545 13.649 375.586 13.649 L 383.627 13.649 384.207 14.254 C 385.580 15.688,385.471 7.517,385.471 108.532 L 385.471 200.568 385.021 201.449 C 384.774 201.933,384.353 202.549,384.086 202.816 L 383.599 203.302 328.856 203.302 L 274.114 203.302 273.558 202.780 C 273.252 202.493,272.848 201.933,272.660 201.536 C 272.261 200.697,272.122 16.592,272.519 15.589 C 272.630 15.309,273.020 14.758,273.387 14.364 L 274.053 13.649 282.065 13.649 L 290.076 13.649 291.092 14.651 " stroke="none" fill="#d3e3eb" fill-rule="evenodd"></path><path id="path2" d="M274.160 14.495 C 272.877 15.568,272.977 7.561,272.977 108.549 L 272.977 200.829 273.437 201.573 C 273.690 201.982,274.080 202.415,274.303 202.534 C 275.038 202.928,382.848 202.824,383.412 202.429 C 384.687 201.536,384.590 209.251,384.590 108.420 C 384.590 7.590,384.687 15.305,383.412 14.412 C 382.532 13.795,368.572 13.948,367.633 14.584 C 366.965 15.037,365.487 16.829,365.452 17.228 C 365.409 17.721,362.962 21.142,362.329 21.595 C 360.627 22.812,357.658 24.426,356.507 24.761 C 354.756 25.270,303.079 25.296,301.209 24.789 C 297.820 23.869,294.348 21.118,292.614 17.980 C 291.943 16.766,291.059 15.528,290.483 14.997 L 289.498 14.089 282.063 14.096 C 275.269 14.103,274.588 14.137,274.160 14.495 M288.390 14.517 C 289.762 14.534,290.680 15.399,292.260 18.162 C 293.404 20.162,295.554 22.675,296.121 22.675 C 296.230 22.675,296.850 23.027,297.499 23.458 C 298.148 23.889,299.395 24.533,300.270 24.889 L 301.862 25.537 328.751 25.533 L 355.641 25.529 356.962 25.038 C 360.300 23.795,363.627 21.324,364.649 19.326 C 365.726 17.222,367.217 15.199,367.990 14.793 C 368.651 14.446,382.374 14.388,383.013 14.730 C 384.239 15.386,384.152 8.269,384.153 108.429 C 384.154 207.924,384.222 201.763,383.115 202.188 C 382.670 202.359,274.898 202.359,274.453 202.188 C 273.347 201.764,273.412 207.932,273.472 108.160 L 273.528 15.730 274.078 15.143 C 274.796 14.378,275.389 14.352,288.390 14.517 M36.764 82.507 C 36.764 82.600,36.962 82.846,37.204 83.053 C 37.446 83.260,37.644 83.354,37.644 83.261 C 37.644 83.168,37.446 82.922,37.204 82.715 C 36.962 82.507,36.764 82.414,36.764 82.507 " stroke="none" fill="#646c6c" fill-rule="evenodd"></path><path id="path3" d="M282.158 14.083 L 289.688 14.199 290.592 15.080 C 291.089 15.564,292.005 16.881,292.628 18.007 C 294.349 21.119,297.834 23.873,301.209 24.789 C 303.079 25.296,354.756 25.270,356.507 24.761 C 357.658 24.426,360.627 22.812,362.329 21.595 C 362.962 21.142,365.409 17.721,365.452 17.228 C 365.482 16.886,366.898 15.105,367.493 14.660 C 368.083 14.220,368.441 14.194,375.525 14.079 L 382.939 13.959 375.413 13.969 L 367.887 13.979 367.192 14.640 C 366.489 15.307,365.746 16.370,364.226 18.879 C 362.679 21.433,358.641 24.179,355.751 24.643 C 353.780 24.960,303.779 24.959,301.829 24.643 C 298.402 24.087,294.935 21.468,292.774 17.803 C 291.668 15.928,290.964 14.986,290.322 14.521 L 289.422 13.869 282.025 13.918 L 274.629 13.968 282.158 14.083 M273.419 15.003 L 272.757 15.916 272.757 108.368 L 272.757 200.821 273.225 201.653 C 273.483 202.112,273.936 202.597,274.233 202.732 C 274.983 203.074,382.561 203.084,383.311 202.743 C 383.595 202.613,384.049 202.185,384.319 201.790 L 384.810 201.073 384.810 108.557 C 384.810 40.461,384.745 15.915,384.562 15.561 C 384.222 14.900,383.461 14.089,383.182 14.089 C 383.055 14.089,383.158 14.234,383.412 14.412 C 384.687 15.305,384.590 7.590,384.590 108.420 C 384.590 209.251,384.687 201.536,383.412 202.429 C 382.848 202.824,275.038 202.928,274.303 202.534 C 274.080 202.415,273.690 201.982,273.437 201.573 L 272.977 200.829 272.977 108.549 C 272.977 7.561,272.877 15.568,274.160 14.495 C 274.418 14.280,274.505 14.101,274.355 14.096 C 274.204 14.092,273.783 14.500,273.419 15.003 " stroke="none" fill="#747c7d" fill-rule="evenodd"></path><path id="path4" d="M262.190 5.724 C 262.190 5.845,262.389 5.944,262.631 5.944 C 262.873 5.944,263.071 5.845,263.071 5.724 C 263.071 5.603,262.873 5.504,262.631 5.504 C 262.389 5.504,262.190 5.603,262.190 5.724 M397.376 9.335 C 397.033 9.748,397.289 10.838,398.261 13.099 C 398.365 13.341,398.548 13.809,398.668 14.140 C 398.816 14.549,398.993 14.700,399.222 14.612 C 399.702 14.428,399.708 12.108,399.229 12.108 C 399.010 12.108,398.899 11.888,398.899 11.454 C 398.899 10.904,398.788 10.771,398.200 10.618 C 397.581 10.458,397.539 10.401,397.836 10.123 C 398.021 9.951,398.126 9.633,398.070 9.418 C 397.946 8.946,397.721 8.919,397.376 9.335 M258.464 10.977 C 258.274 11.332,258.275 11.447,258.467 11.447 C 258.654 11.447,258.657 11.525,258.479 11.740 C 258.245 12.023,258.410 13.053,258.788 13.665 C 259.011 14.025,259.321 13.471,259.325 12.706 C 259.327 12.368,259.476 12.037,259.659 11.967 C 260.186 11.765,260.091 10.567,259.549 10.567 C 259.307 10.567,259.107 10.691,259.105 10.842 C 259.103 11.040,259.048 11.032,258.909 10.812 C 258.754 10.569,258.665 10.602,258.464 10.977 M273.387 14.364 C 273.020 14.758,272.630 15.309,272.519 15.589 C 272.122 16.592,272.261 200.697,272.660 201.536 C 272.848 201.933,273.252 202.493,273.558 202.780 L 274.114 203.302 328.856 203.302 L 383.599 203.302 384.086 202.816 C 384.353 202.549,384.774 201.933,385.021 201.449 L 385.471 200.568 385.471 108.532 C 385.471 7.517,385.580 15.688,384.207 14.254 L 383.627 13.649 375.586 13.649 L 367.545 13.649 366.394 14.866 C 365.761 15.536,365.180 16.282,365.103 16.524 C 365.026 16.766,364.624 17.479,364.210 18.108 C 363.795 18.738,363.456 19.329,363.456 19.423 C 363.456 19.831,361.610 21.382,360.122 22.223 C 359.232 22.727,358.354 23.233,358.173 23.349 C 356.462 24.435,356.446 24.436,328.904 24.436 C 301.974 24.436,300.740 24.398,299.704 23.538 C 299.569 23.426,298.974 23.081,298.381 22.771 C 295.424 21.224,294.334 20.082,292.684 16.797 C 292.367 16.168,291.651 15.202,291.092 14.651 L 290.076 13.649 282.065 13.649 L 274.053 13.649 273.387 14.364 M290.322 14.521 C 290.964 14.986,291.668 15.928,292.774 17.803 C 294.935 21.468,298.402 24.087,301.829 24.643 C 303.779 24.959,353.780 24.960,355.751 24.643 C 358.641 24.179,362.679 21.433,364.226 18.879 C 365.746 16.370,366.489 15.307,367.192 14.640 L 367.887 13.979 375.303 13.923 C 383.436 13.861,383.425 13.859,384.308 15.171 L 384.810 15.915 384.810 108.494 L 384.810 201.073 384.319 201.790 C 384.049 202.185,383.595 202.613,383.311 202.743 C 382.561 203.084,274.983 203.074,274.233 202.732 C 273.936 202.597,273.483 202.112,273.225 201.653 L 272.757 200.821 272.757 108.387 L 272.757 15.953 273.325 15.118 C 274.150 13.903,274.183 13.898,282.135 13.883 L 289.422 13.869 290.322 14.521 M398.790 202.530 C 398.722 202.640,398.654 203.077,398.638 203.501 C 398.622 203.926,398.476 204.324,398.314 204.386 C 397.841 204.567,397.951 205.545,398.459 205.677 C 398.779 205.761,398.899 205.684,398.899 205.396 C 398.899 205.179,399.054 204.941,399.243 204.868 C 399.433 204.796,399.526 204.636,399.451 204.514 C 399.375 204.393,399.493 204.285,399.712 204.275 C 399.943 204.265,399.995 204.211,399.835 204.147 C 399.684 204.086,399.560 203.708,399.560 203.307 C 399.560 202.602,399.059 202.096,398.790 202.530 M211.838 206.494 C 211.838 207.039,211.881 207.262,211.933 206.990 C 211.985 206.717,211.985 206.271,211.933 205.999 C 211.881 205.726,211.838 205.949,211.838 206.494 " stroke="none" fill="#a4acb4" fill-rule="evenodd"></path></g></svg>